<svg width="13" height="20" viewBox="0 0 13 20" fill="none" xmlns="http://www.w3.org/2000/svg">
<path d="M11.4743 3.33333H8.04576C7.41456 3.33333 6.9029 3.8308 6.9029 4.44444V7.77778H11.4743C11.6043 7.77498 11.7276 7.83378 11.8048 7.93544C11.8821 8.03711 11.9038 8.16889 11.8629 8.28889L11.0172 10.7333C10.9392 10.9577 10.7236 11.1093 10.48 11.1111H6.9029V19.4444C6.9029 19.7512 6.64702 20 6.33147 20H3.47433C3.15874 20 2.9029 19.7512 2.9029 19.4444V11.1111H1.18862C0.873028 11.1111 0.617188 10.8623 0.617188 10.5556V8.33333C0.617188 8.02656 0.873028 7.77778 1.18862 7.77778H2.9029V4.44444C2.9029 1.98984 4.94965 0 7.47433 0H11.4743C11.7899 0 12.0458 0.248733 12.0458 0.555556V2.77778C12.0458 3.0846 11.7899 3.33333 11.4743 3.33333Z" fill="#FFFAF7"/>
</svg>
