<svg width="21" height="20" viewBox="0 0 21 20" fill="none" xmlns="http://www.w3.org/2000/svg">
<path fill-rule="evenodd" clip-rule="evenodd" d="M14.4913 0H5.60243C2.53419 0 0.046875 2.48731 0.046875 5.55556V14.4444C0.046875 17.5127 2.53419 20 5.60243 20H14.4913C17.5595 20 20.0469 17.5127 20.0469 14.4444V5.55556C20.0469 2.48731 17.5595 0 14.4913 0ZM18.1024 14.4444C18.0963 16.4362 16.4831 18.0494 14.4913 18.0556H5.60243C3.6106 18.0494 1.99742 16.4362 1.99132 14.4444V5.55556C1.99742 3.56372 3.6106 1.95054 5.60243 1.94444H14.4913C16.4831 1.95054 18.0963 3.56372 18.1024 5.55556V14.4444ZM15.3247 5.83333C15.9383 5.83333 16.4358 5.33587 16.4358 4.72222C16.4358 4.10858 15.9383 3.61111 15.3247 3.61111C14.711 3.61111 14.2135 4.10858 14.2135 4.72222C14.2135 5.33587 14.711 5.83333 15.3247 5.83333ZM10.0469 5C7.28545 5 5.04688 7.23858 5.04688 10C5.04688 12.7614 7.28545 15 10.0469 15C12.8083 15 15.0469 12.7614 15.0469 10C15.0499 8.673 14.524 7.39952 13.5857 6.4612C12.6473 5.52288 11.3739 4.99704 10.0469 5ZM6.99132 10C6.99132 11.6876 8.35932 13.0556 10.0469 13.0556C11.7344 13.0556 13.1024 11.6876 13.1024 10C13.1024 8.31244 11.7344 6.94444 10.0469 6.94444C8.35932 6.94444 6.99132 8.31244 6.99132 10Z" fill="#FFFAF7"/>
</svg>
