<svg width="21" height="20" viewBox="0 0 21 20" fill="none" xmlns="http://www.w3.org/2000/svg">
<path fill-rule="evenodd" clip-rule="evenodd" d="M2.60503 0H18.1606C19.3879 0 20.3828 0.994922 20.3828 2.22222V17.7778C20.3828 19.0051 19.3879 20 18.1606 20H2.60503C1.37773 20 0.382812 19.0051 0.382812 17.7778V2.22222C0.382812 0.994922 1.37773 0 2.60503 0ZM5.93837 16.6667C6.24519 16.6667 6.49392 16.4179 6.49392 16.1111V8.33333C6.49392 8.02656 6.24519 7.77778 5.93837 7.77778H4.2717C3.96488 7.77778 3.71615 8.02656 3.71615 8.33333V16.1111C3.71615 16.4179 3.96488 16.6667 4.2717 16.6667H5.93837ZM5.10503 6.66667C4.18456 6.66667 3.43837 5.92048 3.43837 5C3.43837 4.07952 4.18456 3.33333 5.10503 3.33333C6.02551 3.33333 6.7717 4.07952 6.7717 5C6.7717 5.92048 6.02551 6.66667 5.10503 6.66667ZM16.4939 16.6667C16.8007 16.6667 17.0495 16.4179 17.0495 16.1111V11C17.0856 9.23422 15.7801 7.72725 14.0273 7.51111C12.8017 7.39917 11.6143 7.97156 10.9384 9V8.33333C10.9384 8.02656 10.6896 7.77778 10.3828 7.77778H8.71615C8.40937 7.77778 8.16059 8.02656 8.16059 8.33333V16.1111C8.16059 16.4179 8.40937 16.6667 8.71615 16.6667H10.3828C10.6896 16.6667 10.9384 16.4179 10.9384 16.1111V11.9444C10.9384 11.024 11.6846 10.2778 12.605 10.2778C13.5255 10.2778 14.2717 11.024 14.2717 11.9444V16.1111C14.2717 16.4179 14.5205 16.6667 14.8273 16.6667H16.4939Z" fill="#FFFAF7"/>
</svg>
