<svg width="260" height="33" viewBox="0 0 260 33" fill="none" xmlns="http://www.w3.org/2000/svg">
<g clip-path="url(#clip0_2059_472)">
<path d="M226.819 8.98537C224.834 8.9877 222.931 9.7523 221.528 11.1115C220.124 12.4706 219.335 14.3134 219.332 16.2355V26.428C219.349 26.6301 219.321 26.8334 219.253 27.0249C219.184 27.2164 219.075 27.3921 218.933 27.541C218.791 27.6898 218.618 27.8086 218.426 27.8898C218.234 27.971 218.027 28.0129 217.818 28.0129C217.608 28.0129 217.401 27.971 217.209 27.8898C217.018 27.8086 216.845 27.6898 216.703 27.541C216.561 27.3921 216.452 27.2164 216.383 27.0249C216.314 26.8334 216.287 26.6301 216.303 26.428V16.2355C216.303 14.3103 215.514 12.464 214.108 11.1027C212.702 9.74134 210.796 8.97656 208.808 8.97656C206.82 8.97656 204.914 9.74134 203.508 11.1027C202.102 12.464 201.312 14.3103 201.312 16.2355V32.4712H207.089V15.5836C207.089 15.142 207.27 14.7185 207.592 14.4063C207.915 14.0941 208.352 13.9186 208.808 13.9186C209.264 13.9186 209.701 14.0941 210.024 14.4063C210.346 14.7185 210.527 15.142 210.527 15.5836V25.9523C210.527 27.8214 211.294 29.6139 212.659 30.9356C214.023 32.2573 215.874 32.9998 217.804 32.9998C219.734 32.9998 221.585 32.2573 222.95 30.9356C224.315 29.6139 225.081 27.8214 225.081 25.9523V15.5924C225.081 15.1508 225.262 14.7273 225.585 14.4151C225.907 14.1029 226.345 13.9274 226.8 13.9274C227.256 13.9274 227.694 14.1029 228.016 14.4151C228.339 14.7273 228.52 15.1508 228.52 15.5924V32.48H234.296V16.2355C234.291 14.3156 233.502 12.4755 232.101 11.1171C230.7 9.75872 228.801 8.99235 226.819 8.98537Z" fill="#FFFAF7"/>
<path d="M165.096 8.94128C160.548 8.94128 156.309 11.4432 156.309 15.5924C156.309 19.3188 159.366 21.2304 163.405 22.4108C168.207 23.9173 170.081 24.2784 170.081 26.102C170.081 27.5115 168.262 28.1986 166.324 28.1986C163.887 28.1986 161.485 27.6436 161.267 24.437H155.545C155.418 30.6036 160.612 32.8852 166.152 32.8852C171.691 32.8852 175.885 30.5155 175.885 26.2341C175.885 23.2742 174.065 20.7723 168.79 19.0457C163.759 17.3543 162.067 17.0371 162.067 15.5836C162.067 14.13 163.805 13.5838 165.26 13.5838C165.793 13.5427 166.329 13.614 166.83 13.7929C167.332 13.9718 167.787 14.254 168.165 14.6201C168.543 14.9861 168.835 15.4272 169.019 15.913C169.204 16.3987 169.278 16.9175 169.235 17.4335H174.648C175.121 11.8924 170.645 8.94128 165.096 8.94128Z" fill="#FFFAF7"/>
<path d="M119.161 13.5224C115.814 11.8046 113.904 10.8796 113.904 8.43059C113.904 6.49253 115.723 5.22397 117.952 5.22397C120.462 5.22397 123.136 7.16204 122.045 11.7694H127.767C128.949 4.72184 123.946 0 117.952 0C112.494 0 108.182 3.32995 108.182 8.19274C108.182 12.4741 110.465 14.7734 117.115 18.4645C120.881 20.4466 123.391 21.6623 123.391 24.2258C123.391 26.1199 121.708 27.6527 118.652 27.6527C115.859 27.6527 112.676 26.0494 113.194 20.7197H107.473C106.727 27.5029 111.693 32.8767 118.625 32.8767C124.392 32.8767 129.085 29.811 129.085 24.4108C129.167 19.5569 125.447 16.8083 119.161 13.5224Z" fill="#FFFAF7"/>
<path d="M188.994 8.94922C183.445 8.94922 178.661 11.8299 179.188 17.4415H184.573C184.573 14.4199 186.938 13.583 188.776 13.583C191.004 13.583 192.46 14.6665 192.46 15.8029C192.46 16.9129 191.859 17.785 189.731 18.1815L186.793 18.6307C180.871 19.5117 177.605 22.2162 177.605 25.9602C177.605 29.528 180.18 32.8755 185.31 32.8755C186.701 32.866 188.067 32.5221 189.286 31.8747C190.506 31.2274 191.54 30.2969 192.296 29.1668L193.315 32.4174H197.945V17.0979C197.99 11.5128 194.516 8.94922 188.994 8.94922ZM186.347 28.1889C184.528 28.1889 183.427 27.308 183.427 26.0835C183.427 24.859 184.528 23.7402 186.702 23.4407L192.451 22.5597C192.405 24.0879 191.739 25.5369 190.595 26.5912C189.452 27.6455 187.925 28.2198 186.347 28.1889Z" fill="#FFFAF7"/>
<path d="M153.139 22.7457C153.193 22.1995 153.257 21.4772 153.257 20.9134C153.258 20.1939 153.204 19.4754 153.093 18.7639C152.184 13.029 148.354 8.94141 142.041 8.94141C134.955 8.94141 130.789 14.1037 130.789 20.931C130.789 27.7583 135.383 32.8853 142.469 32.8853C144.545 32.9167 146.59 32.3909 148.377 31.3663C150.164 30.3417 151.623 28.8581 152.593 27.08L148.045 24.9128C147.253 26.4104 145.525 27.9257 142.36 27.9257C140.812 28.0297 139.283 27.5478 138.095 26.5815C136.908 25.6152 136.153 24.24 135.992 22.7457H153.075H153.139ZM136.083 18.7639C136.702 15.4516 138.921 13.8923 142.132 13.8923C145.343 13.8923 147.79 15.4956 148.163 18.7639H136.083Z" fill="#FFFAF7"/>
<path d="M259.244 22.7456C259.299 22.1994 259.363 21.4771 259.363 20.9133C259.364 20.1938 259.309 19.4752 259.199 18.7638C258.344 13.0288 254.46 8.94128 248.147 8.94128C241.061 8.94128 236.895 14.1036 236.895 20.9309C236.895 27.7582 241.497 32.8852 248.574 32.8852C250.651 32.9165 252.695 32.3908 254.482 31.3662C256.269 30.3415 257.728 28.858 258.698 27.0798L254.15 24.9127C253.359 26.4103 251.631 27.9255 248.465 27.9255C246.925 28.0177 245.408 27.5304 244.23 26.5653C243.052 25.6001 242.304 24.2317 242.143 22.7456H259.244ZM242.161 18.7638C242.78 15.4514 244.999 13.8922 248.21 13.8922C251.421 13.8922 253.868 15.4955 254.241 18.7638H242.161Z" fill="#FFFAF7"/>
<path d="M24.1238 9.39062H18.3477V32.4272H24.1238V9.39062Z" fill="#FFFAF7"/>
<path d="M21.2236 0.980481C20.5504 0.978737 19.8917 1.17049 19.3311 1.53145C18.7704 1.89242 18.333 2.40637 18.0741 3.00825C17.8152 3.61012 17.7465 4.27285 17.8768 4.91255C18.007 5.55224 18.3303 6.14012 18.8057 6.60178C19.2811 7.06343 19.8873 7.3781 20.5475 7.50594C21.2077 7.63379 21.8922 7.56906 22.5143 7.31995C23.1365 7.07084 23.6684 6.64856 24.0426 6.10655C24.4168 5.56455 24.6166 4.9272 24.6166 4.2752C24.6178 3.84294 24.5309 3.41471 24.3609 3.01503C24.1909 2.61535 23.9412 2.25207 23.626 1.94601C23.3108 1.63995 22.9364 1.39713 22.5242 1.23145C22.1119 1.06576 21.67 0.980479 21.2236 0.980481Z" fill="#FFFAF7"/>
<path d="M73.3543 0.765625H67.5781V32.4266H73.3543V0.765625Z" fill="#FFFAF7"/>
<path d="M5.7216 0.765625H0V32.4354H15.3V27.2114H5.7216V0.765625Z" fill="#FFFAF7"/>
<path d="M35.8305 2.5625H30.018V9.38097H27.2891V14.6666H30.118V25.6343C30.1857 27.5146 31.0045 29.296 32.4019 30.6029C33.7994 31.9099 35.6662 32.6404 37.6089 32.6404C39.5516 32.6404 41.4184 31.9099 42.8158 30.6029C44.2132 29.296 45.032 27.5146 45.0997 25.6343V17.5649H39.2871V26.1805C39.2871 26.6221 39.106 27.0456 38.7836 27.3578C38.4612 27.6701 38.0239 27.8455 37.5679 27.8455C37.112 27.8455 36.6747 27.6701 36.3523 27.3578C36.0299 27.0456 35.8487 26.6221 35.8487 26.1805V14.6578H45.0633V9.37216H35.8396L35.8305 2.5625Z" fill="#FFFAF7"/>
<path d="M98.2403 22.7456C98.2949 22.1994 98.3586 21.4771 98.3586 20.9133C98.3751 20.1949 98.3356 19.4764 98.2403 18.7638C97.3307 13.0288 93.5012 8.94128 87.1883 8.94128C80.0477 8.94128 75.8906 14.0948 75.8906 20.9309C75.8906 27.767 80.4388 32.8852 87.5703 32.8852C89.6467 32.9165 91.6915 32.3908 93.4784 31.3662C95.2653 30.3415 96.7245 28.858 97.6946 27.0798L93.1464 24.9127C92.355 26.4103 90.6267 27.9255 87.4612 27.9255C85.9136 28.0296 84.3848 27.5476 83.1969 26.5813C82.0091 25.615 81.255 24.2398 81.0937 22.7456H98.2403ZM81.1938 18.7638C81.8123 15.4514 84.0319 13.8922 87.2429 13.8922C90.4539 13.8922 92.9008 15.4955 93.2737 18.7638H81.1938Z" fill="#FFFAF7"/>
<path d="M55.0414 2.5625H49.2652V9.38097H46.4453V14.6666H49.2743V25.6343C49.2743 27.5595 50.064 29.4058 51.4696 30.7672C52.8753 32.1285 54.7818 32.8932 56.7697 32.8932C58.7576 32.8932 60.664 32.1285 62.0697 30.7672C63.4754 29.4058 64.2651 27.5595 64.2651 25.6343V17.5649H58.498V26.1805C58.498 26.6221 58.3168 27.0456 57.9944 27.3578C57.672 27.67 57.2347 27.8455 56.7788 27.8455C56.3228 27.8455 55.8855 27.67 55.5631 27.3578C55.2407 27.0456 55.0596 26.6221 55.0596 26.1805V14.6578H64.2742V9.37216H55.0414V2.5625Z" fill="#FFFAF7"/>
</g>
<defs>
<clipPath id="clip0_2059_472">
<rect width="260" height="33" fill="white"/>
</clipPath>
</defs>
</svg>
