<svg width="24" height="20" viewBox="0 0 24 20" fill="none" xmlns="http://www.w3.org/2000/svg">
<path d="M23.3461 2.89857C22.7441 3.7084 22.0163 4.41482 21.191 4.99055C21.191 5.20209 21.191 5.41363 21.191 5.63694C21.1976 9.47858 19.6759 13.1622 16.967 15.8621C14.258 18.562 10.5884 20.0522 6.78102 19.9986C4.57983 20.0061 2.40682 19.4993 0.432234 18.5178C0.325756 18.4709 0.257091 18.3647 0.257493 18.2475V18.1182C0.257493 17.9494 0.393099 17.8127 0.560373 17.8127C2.72409 17.7407 4.81061 16.9842 6.52473 15.6502C4.56627 15.6104 2.80416 14.4404 1.99321 12.6415C1.95226 12.5433 1.965 12.4305 2.02687 12.3441C2.08873 12.2577 2.19076 12.2101 2.29609 12.2185C2.89131 12.2787 3.49248 12.2229 4.06677 12.0539C1.90479 11.6013 0.280295 9.79139 0.0478039 7.5761C0.0395465 7.46982 0.0867704 7.36694 0.17243 7.30446C0.258076 7.24211 0.369778 7.22917 0.467182 7.2706C1.04735 7.52878 1.67366 7.66472 2.30774 7.67008C0.413333 6.4163 -0.404928 4.03145 0.315735 1.86435C0.39013 1.65377 0.56885 1.4982 0.786226 1.45483C1.00359 1.41144 1.22756 1.48665 1.37581 1.6528C3.9322 4.39642 7.44471 6.03133 11.1727 6.21281C11.0773 5.82858 11.0303 5.43369 11.0329 5.03755C11.0678 2.96043 12.3423 1.11008 14.2598 0.352774C16.1772 -0.404521 18.3581 0.081088 19.7815 1.58228C20.7517 1.39589 21.6897 1.06726 22.5656 0.606814C22.6297 0.566422 22.7111 0.566422 22.7753 0.606814C22.8154 0.671546 22.8154 0.753625 22.7753 0.818357C22.351 1.79807 21.6343 2.61977 20.7251 3.16888C21.5213 3.07577 22.3035 2.88637 23.0549 2.60477C23.1182 2.56134 23.2013 2.56134 23.2645 2.60477C23.3176 2.62921 23.3572 2.67597 23.3729 2.73258C23.3886 2.7892 23.3787 2.84992 23.3461 2.89857Z" fill="#FFFAF7"/>
</svg>
